<svg width="67" height="68" viewBox="0 0 67 68" fill="none" xmlns="http://www.w3.org/2000/svg">
<g id="Frame">
<g id="Group">
<g id="Group_2">
<path id="Vector" d="M37.7677 24.1116C37.7677 20.709 35.0448 17.9551 31.6804 17.9551C28.316 17.9551 25.593 20.709 25.593 24.1116C25.593 27.4878 28.2898 30.2284 31.6149 30.2682H37.375L35.7779 28.6529C36.9953 27.5275 37.7677 25.9122 37.7677 24.1116ZM28.7349 24.1116C28.7349 22.4699 30.0571 21.1326 31.6804 21.1326C33.3036 21.1326 34.6258 22.4699 34.6258 24.1116C34.6258 25.7534 33.3036 27.0906 31.6804 27.0906C30.044 27.0906 28.7349 25.7534 28.7349 24.1116Z" fill="url(#paint0_linear_871_585)"/>
<g id="Group_3">
<path id="Vector_2" d="M46.4079 12.9766C46.4341 13.0031 46.4602 13.0296 46.4864 13.0561C46.4995 13.0693 46.5126 13.0826 46.5126 13.0958C46.5388 13.1223 46.565 13.162 46.5912 13.1885C46.6697 13.2679 46.7352 13.3606 46.7875 13.4533C46.8137 13.493 46.8399 13.5327 46.8661 13.5592C46.9053 13.6254 46.9446 13.6916 46.9839 13.7578C47.0101 13.7975 47.0362 13.8372 47.0493 13.8902C47.0755 13.9431 47.1017 13.9961 47.1279 14.0358C47.141 14.0623 47.1541 14.0888 47.1672 14.1153C47.1802 14.155 47.2064 14.1947 47.2195 14.2212C47.2457 14.2874 47.2719 14.3536 47.2981 14.4198C47.3373 14.5257 47.3766 14.6449 47.4028 14.7508C47.4552 14.9361 47.4813 15.1347 47.5075 15.3333C47.5075 15.3863 47.5206 15.4393 47.5206 15.5055C47.5206 15.5849 47.5337 15.6643 47.5337 15.7438V32.7173C47.5337 32.7703 47.5337 32.8232 47.5337 32.8629C47.4552 34.9813 45.7271 36.6893 43.6064 36.6893H20.0556C18.9559 36.6893 17.961 36.2259 17.2541 35.4977C16.9268 37.3645 15.801 38.9533 14.2432 39.8801C15.8272 41.1908 17.8563 41.9852 20.0556 41.9852H43.5933C48.6334 41.9852 52.7178 37.8808 52.757 32.7967C52.757 32.7703 52.757 32.7438 52.757 32.7173V15.757C52.757 15.6643 52.757 15.5717 52.757 15.4922C52.757 15.3995 52.757 15.3201 52.7439 15.2274C52.7439 15.1347 52.7309 15.0553 52.7309 14.9759C52.7309 14.9626 52.7309 14.9626 52.7309 14.9494C52.7309 14.8699 52.7178 14.8037 52.7047 14.7243C52.7047 14.7111 52.7047 14.6978 52.7047 14.6846C52.6916 14.6316 52.6916 14.5787 52.6785 14.5257C52.6785 14.4727 52.6654 14.4198 52.6523 14.3668C52.613 14.1285 52.5738 13.9034 52.5214 13.6784C52.5083 13.5989 52.4821 13.5062 52.4559 13.4268C52.4298 13.3474 52.4167 13.2679 52.3905 13.1752C52.3643 13.0958 52.3381 13.0164 52.3119 12.9369C52.2988 12.884 52.2727 12.8178 52.2596 12.7648C52.2465 12.7118 52.2203 12.6456 52.1941 12.5927C52.181 12.5397 52.1549 12.4868 52.1287 12.4206C52.1025 12.3411 52.0763 12.2749 52.037 12.1955C52.0108 12.116 51.9716 12.0366 51.9323 11.9572C51.893 11.8777 51.8668 11.8115 51.8276 11.7321C51.8276 11.7321 51.8276 11.7321 51.8276 11.7188C51.7883 11.6394 51.749 11.5732 51.7098 11.4938C51.6705 11.4143 51.6312 11.3481 51.5919 11.2687C51.5527 11.1893 51.5134 11.1231 51.4741 11.0436C51.3432 10.8318 51.2123 10.6199 51.0683 10.4081C50.8719 10.1301 50.6756 9.86527 50.453 9.62695C50.3483 9.50779 50.2305 9.37539 50.1126 9.25623C50.0603 9.20327 49.9948 9.13707 49.9425 9.08411C49.877 9.03115 49.8246 8.96496 49.7592 8.912C49.6937 8.85904 49.6414 8.80608 49.5759 8.75312L49.5628 8.73988C49.4974 8.68692 49.445 8.63396 49.3795 8.59424C47.861 9.53427 46.7352 11.1098 46.4079 12.9766Z" fill="url(#paint1_linear_871_585)"/>
<g id="Clip path group">
<mask id="mask0_871_585" style="mask-type:luminance" maskUnits="userSpaceOnUse" x="14" y="8" width="39" height="34">
<g id="SVGID_4_">
<path id="Vector_3" d="M46.4079 12.9766C46.4341 13.0031 46.4602 13.0296 46.4864 13.0561C46.4995 13.0693 46.5126 13.0826 46.5126 13.0958C46.5388 13.1223 46.565 13.162 46.5912 13.1885C46.6697 13.2679 46.7352 13.3606 46.7875 13.4533C46.8137 13.493 46.8399 13.5327 46.8661 13.5592C46.9053 13.6254 46.9446 13.6916 46.9839 13.7578C47.0101 13.7975 47.0362 13.8372 47.0493 13.8902C47.0755 13.9431 47.1017 13.9961 47.1279 14.0358C47.141 14.0623 47.1541 14.0888 47.1672 14.1153C47.1802 14.155 47.2064 14.1947 47.2195 14.2212C47.2457 14.2874 47.2719 14.3536 47.2981 14.4198C47.3373 14.5257 47.3766 14.6449 47.4028 14.7508C47.4552 14.9361 47.4813 15.1347 47.5075 15.3333C47.5075 15.3863 47.5206 15.4393 47.5206 15.5055C47.5206 15.5849 47.5337 15.6643 47.5337 15.7438V32.7173C47.5337 32.7703 47.5337 32.8232 47.5337 32.8629C47.4552 34.9813 45.7271 36.6893 43.6064 36.6893H20.0556C18.9559 36.6893 17.961 36.2259 17.2541 35.4977C16.9268 37.3645 15.801 38.9533 14.2432 39.8801C15.8272 41.1908 17.8563 41.9852 20.0556 41.9852H43.5933C48.6334 41.9852 52.7178 37.8808 52.757 32.7967C52.757 32.7703 52.757 32.7438 52.757 32.7173V15.757C52.757 15.6643 52.757 15.5717 52.757 15.4922C52.757 15.3995 52.757 15.3201 52.7439 15.2274C52.7439 15.1347 52.7309 15.0553 52.7309 14.9759C52.7309 14.9626 52.7309 14.9626 52.7309 14.9494C52.7309 14.8699 52.7178 14.8037 52.7047 14.7243C52.7047 14.7111 52.7047 14.6978 52.7047 14.6846C52.6916 14.6316 52.6916 14.5787 52.6785 14.5257C52.6785 14.4727 52.6654 14.4198 52.6523 14.3668C52.613 14.1285 52.5738 13.9034 52.5214 13.6784C52.5083 13.5989 52.4821 13.5062 52.4559 13.4268C52.4298 13.3474 52.4167 13.2679 52.3905 13.1752C52.3643 13.0958 52.3381 13.0164 52.3119 12.9369C52.2988 12.884 52.2727 12.8178 52.2596 12.7648C52.2465 12.7118 52.2203 12.6456 52.1941 12.5927C52.181 12.5397 52.1549 12.4868 52.1287 12.4206C52.1025 12.3411 52.0763 12.2749 52.037 12.1955C52.0108 12.116 51.9716 12.0366 51.9323 11.9572C51.893 11.8777 51.8668 11.8115 51.8276 11.7321C51.8276 11.7321 51.8276 11.7321 51.8276 11.7188C51.7883 11.6394 51.749 11.5732 51.7098 11.4938C51.6705 11.4143 51.6312 11.3481 51.5919 11.2687C51.5527 11.1893 51.5134 11.1231 51.4741 11.0436C51.3432 10.8318 51.2123 10.6199 51.0683 10.4081C50.8719 10.1301 50.6756 9.86527 50.453 9.62695C50.3483 9.50779 50.2305 9.37539 50.1126 9.25623C50.0603 9.20327 49.9948 9.13707 49.9425 9.08411C49.877 9.03115 49.8246 8.96496 49.7592 8.912C49.6937 8.85904 49.6414 8.80608 49.5759 8.75312L49.5628 8.73988C49.4974 8.68692 49.445 8.63396 49.3795 8.59424C47.861 9.53427 46.7352 11.1098 46.4079 12.9766Z" fill="white"/>
</g>
</mask>
<g mask="url(#mask0_871_585)">
<path id="Vector_4" d="M0 33.7501L23.7603 -8.20703L67 16.8428L43.2528 58.8L0 33.7501Z" fill="url(#paint2_linear_871_585)"/>
</g>
</g>
</g>
<g id="Group_4">
<path id="Vector_5" d="M20.0556 6.48926C14.9893 6.48926 10.8918 10.6333 10.8918 15.7572V32.7307C10.8918 32.8234 10.8918 32.9161 10.8918 32.9955C10.8918 33.0882 10.9049 33.1676 10.9049 33.2603C10.9049 33.353 10.918 33.4324 10.918 33.5251V33.5383C10.9311 33.6178 10.9311 33.6972 10.9442 33.7766C10.9442 33.7899 10.9442 33.7899 10.9442 33.8031C10.9442 33.8561 10.9573 33.9223 10.9704 33.9752C10.9835 34.0282 10.9835 34.0812 10.9966 34.1341C11.0097 34.2003 11.0228 34.2665 11.0228 34.3327C11.0358 34.3857 11.0358 34.4386 11.0489 34.4916C11.0751 34.5975 11.0882 34.7167 11.1144 34.8226C11.1275 34.902 11.1537 34.9947 11.1798 35.0741C11.206 35.1668 11.2322 35.2595 11.2584 35.3522C11.2715 35.4184 11.2977 35.4846 11.3239 35.5508C11.3369 35.617 11.3631 35.6699 11.3893 35.7361C11.4024 35.7891 11.4155 35.8288 11.4417 35.8685C11.4548 35.895 11.4548 35.9083 11.4679 35.9347C11.494 35.9877 11.5071 36.0407 11.5333 36.0936C11.5595 36.1598 11.5726 36.2128 11.5988 36.2657C11.6249 36.3319 11.6511 36.3849 11.6773 36.4511C11.7166 36.5438 11.7559 36.6365 11.8082 36.7291C11.8475 36.8086 11.8868 36.8748 11.926 36.9542C11.9653 37.0337 12.0046 37.0998 12.0439 37.1793C12.07 37.2322 12.1093 37.2852 12.1355 37.3382C12.1617 37.3779 12.1748 37.4176 12.201 37.4573C12.2402 37.5235 12.2664 37.5765 12.3057 37.6294C12.345 37.6956 12.3842 37.7486 12.4235 37.8148C12.4628 37.8678 12.489 37.9207 12.5282 37.9737C12.633 38.1326 12.7377 38.2782 12.8555 38.4238C12.9079 38.49 12.9602 38.5562 13.0126 38.6224C13.065 38.6886 13.1304 38.7681 13.1828 38.8343C13.2351 38.8872 13.2875 38.9534 13.3399 39.0064C13.3922 39.0594 13.4446 39.1123 13.497 39.1653C13.5362 39.2182 13.5886 39.2579 13.6279 39.2977C13.6541 39.3241 13.6933 39.3639 13.7195 39.3903C13.785 39.4565 13.8635 39.5227 13.929 39.5889C13.9682 39.6287 14.0075 39.6551 14.0468 39.6949C14.0992 39.7478 14.1646 39.8008 14.2301 39.8537C15.7879 38.9137 16.9137 37.3382 17.241 35.4713C17.2017 35.4316 17.1494 35.3787 17.1101 35.3389C17.0708 35.2992 17.0316 35.2463 16.9923 35.1933C16.953 35.1403 16.9137 35.0874 16.8745 35.0477C16.8352 34.9947 16.7959 34.9418 16.7697 34.8888C16.7043 34.7829 16.6388 34.677 16.5734 34.571C16.5079 34.4651 16.4555 34.346 16.4163 34.2268C16.3639 34.1076 16.3246 33.9885 16.2854 33.8693C16.2592 33.7899 16.2461 33.7104 16.2199 33.631C16.2068 33.5913 16.1937 33.5383 16.1937 33.4986C16.1675 33.3662 16.1544 33.247 16.1414 33.1146C16.1283 33.0617 16.1283 33.0087 16.1283 32.9425C16.1283 32.8631 16.1152 32.7837 16.1152 32.7042V15.7572C16.1152 15.7042 16.1152 15.6513 16.1152 15.6115C16.1937 13.4932 17.9217 11.7852 20.0425 11.7852H43.5802C44.7191 11.7852 45.7402 12.2751 46.4602 13.0562C46.4341 13.0298 46.4079 13.0033 46.3817 12.9768C46.709 11.11 47.8348 9.52119 49.3926 8.5944C47.8086 7.28365 45.7795 6.48926 43.5802 6.48926H20.0556Z" fill="url(#paint3_linear_871_585)"/>
<g id="Clip path group_2">
<mask id="mask1_871_585" style="mask-type:luminance" maskUnits="userSpaceOnUse" x="10" y="6" width="40" height="34">
<g id="SVGID_8_">
<path id="Vector_6" d="M20.0556 6.48926C14.9893 6.48926 10.8918 10.6333 10.8918 15.7572V32.7307C10.8918 32.8234 10.8918 32.9161 10.8918 32.9955C10.8918 33.0882 10.9049 33.1676 10.9049 33.2603C10.9049 33.353 10.918 33.4324 10.918 33.5251V33.5383C10.9311 33.6178 10.9311 33.6972 10.9442 33.7766C10.9442 33.7899 10.9442 33.7899 10.9442 33.8031C10.9442 33.8561 10.9573 33.9223 10.9704 33.9752C10.9835 34.0282 10.9835 34.0812 10.9966 34.1341C11.0097 34.2003 11.0228 34.2665 11.0228 34.3327C11.0358 34.3857 11.0358 34.4386 11.0489 34.4916C11.0751 34.5975 11.0882 34.7167 11.1144 34.8226C11.1275 34.902 11.1537 34.9947 11.1798 35.0741C11.206 35.1668 11.2322 35.2595 11.2584 35.3522C11.2715 35.4184 11.2977 35.4846 11.3239 35.5508C11.3369 35.617 11.3631 35.6699 11.3893 35.7361C11.4024 35.7891 11.4155 35.8288 11.4417 35.8685C11.4548 35.895 11.4548 35.9083 11.4679 35.9347C11.494 35.9877 11.5071 36.0407 11.5333 36.0936C11.5595 36.1598 11.5726 36.2128 11.5988 36.2657C11.6249 36.3319 11.6511 36.3849 11.6773 36.4511C11.7166 36.5438 11.7559 36.6365 11.8082 36.7291C11.8475 36.8086 11.8868 36.8748 11.926 36.9542C11.9653 37.0337 12.0046 37.0998 12.0439 37.1793C12.07 37.2322 12.1093 37.2852 12.1355 37.3382C12.1617 37.3779 12.1748 37.4176 12.201 37.4573C12.2402 37.5235 12.2664 37.5765 12.3057 37.6294C12.345 37.6956 12.3842 37.7486 12.4235 37.8148C12.4628 37.8678 12.489 37.9207 12.5282 37.9737C12.633 38.1326 12.7377 38.2782 12.8555 38.4238C12.9079 38.49 12.9602 38.5562 13.0126 38.6224C13.065 38.6886 13.1304 38.7681 13.1828 38.8343C13.2351 38.8872 13.2875 38.9534 13.3399 39.0064C13.3922 39.0594 13.4446 39.1123 13.497 39.1653C13.5362 39.2182 13.5886 39.2579 13.6279 39.2977C13.6541 39.3241 13.6933 39.3639 13.7195 39.3903C13.785 39.4565 13.8635 39.5227 13.929 39.5889C13.9682 39.6287 14.0075 39.6551 14.0468 39.6949C14.0992 39.7478 14.1646 39.8008 14.2301 39.8537C15.7879 38.9137 16.9137 37.3382 17.241 35.4713C17.2017 35.4316 17.1494 35.3787 17.1101 35.3389C17.0708 35.2992 17.0316 35.2463 16.9923 35.1933C16.953 35.1403 16.9137 35.0874 16.8745 35.0477C16.8352 34.9947 16.7959 34.9418 16.7697 34.8888C16.7043 34.7829 16.6388 34.677 16.5734 34.571C16.5079 34.4651 16.4555 34.346 16.4163 34.2268C16.3639 34.1076 16.3246 33.9885 16.2854 33.8693C16.2592 33.7899 16.2461 33.7104 16.2199 33.631C16.2068 33.5913 16.1937 33.5383 16.1937 33.4986C16.1675 33.3662 16.1544 33.247 16.1414 33.1146C16.1283 33.0617 16.1283 33.0087 16.1283 32.9425C16.1283 32.8631 16.1152 32.7837 16.1152 32.7042V15.7572C16.1152 15.7042 16.1152 15.6513 16.1152 15.6115C16.1937 13.4932 17.9217 11.7852 20.0425 11.7852H43.5802C44.7191 11.7852 45.7402 12.2751 46.4602 13.0562C46.4341 13.0298 46.4079 13.0033 46.3817 12.9768C46.709 11.11 47.8348 9.52119 49.3926 8.5944C47.8086 7.28365 45.7795 6.48926 43.5802 6.48926H20.0556Z" fill="white"/>
</g>
</mask>
<g mask="url(#mask1_871_585)">
<path id="Vector_7" d="M57.4568 8.59417L46.9839 49.373L2.854 37.7749L13.3268 -2.99072L57.4568 8.59417Z" fill="url(#paint4_linear_871_585)"/>
</g>
</g>
</g>
</g>
<g id="Group_5">
<path id="Vector_8" d="M8.58773 53.5317C6.06115 53.5317 4.00586 55.4648 4.00586 57.8347C4.00586 60.2046 6.04806 62.1377 8.58773 62.1377C11.1143 62.1377 13.1696 60.2046 13.1696 57.8347C13.1696 55.4648 11.1143 53.5317 8.58773 53.5317ZM8.58773 59.6221C7.54044 59.6221 6.68952 58.8277 6.68952 57.8347C6.68952 56.8417 7.54044 56.0473 8.58773 56.0473C9.63501 56.0473 10.4859 56.8417 10.4859 57.8347C10.4859 58.8277 9.63501 59.6221 8.58773 59.6221Z" fill="#333333"/>
<path id="Vector_9" d="M36.6026 53.5317C34.076 53.5317 32.0208 55.4648 32.0208 57.8347C32.0208 60.2046 34.063 62.1377 36.6026 62.1377C39.1292 62.1377 41.1845 60.2046 41.1845 57.8347C41.1845 55.4648 39.1292 53.5317 36.6026 53.5317ZM36.6026 59.6221C35.5553 59.6221 34.7044 58.8277 34.7044 57.8347C34.7044 56.8417 35.5553 56.0473 36.6026 56.0473C37.6499 56.0473 38.5008 56.8417 38.5008 57.8347C38.5008 58.8277 37.6499 59.6221 36.6026 59.6221Z" fill="#333333"/>
<path id="Vector_10" d="M46.421 53.5317C43.8944 53.5317 41.8391 55.4648 41.8391 57.8347C41.8391 60.2046 43.8813 62.1377 46.421 62.1377C48.9476 62.1377 51.0028 60.2046 51.0028 57.8347C51.0028 55.4648 48.9476 53.5317 46.421 53.5317ZM46.421 59.6221C45.3737 59.6221 44.5228 58.8277 44.5228 57.8347C44.5228 56.8417 45.3737 56.0473 46.421 56.0473C47.4683 56.0473 48.3192 56.8417 48.3192 57.8347C48.3192 58.8277 47.4683 59.6221 46.421 59.6221Z" fill="#333333"/>
<path id="Vector_11" d="M59.6428 53.5317H56.37L54.6682 56.3254V53.5317H51.6572V62.1377H54.6682V59.344L56.37 62.1377H59.6428L57.0246 57.8347L59.6428 53.5317Z" fill="#333333"/>
<path id="Vector_12" d="M26.6533 59.0923V53.7964H23.6423V59.0923V62.1375H26.6533H31.3661V59.0923H26.6533Z" fill="#333333"/>
<path id="Vector_13" d="M22.9487 53.7964L20.9196 54.988L19.977 55.5176V55.5308L18.4061 56.4444L16.8352 55.5308V55.5176L15.9057 54.988L13.8766 53.7964H13.8242V57.2917V62.1375H16.8352V59.0394L18.4061 59.9662L19.977 59.0394V62.1375H22.988V57.2917V53.7964H22.9487Z" fill="#333333"/>
</g>
</g>
</g>
<defs>
<linearGradient id="paint0_linear_871_585" x1="25.5896" y1="24.1122" x2="37.7643" y2="24.1122" gradientUnits="userSpaceOnUse">
<stop stop-color="#79EFD3"/>
<stop offset="1" stop-color="#4FBBE7"/>
</linearGradient>
<linearGradient id="paint1_linear_871_585" x1="33.5033" y1="8.59577" x2="33.5033" y2="41.9934" gradientUnits="userSpaceOnUse">
<stop stop-color="#79EFD3"/>
<stop offset="1" stop-color="#4FBBE7"/>
</linearGradient>
<linearGradient id="paint2_linear_871_585" x1="33.5033" y1="5.50941" x2="33.5034" y2="58.9618" gradientUnits="userSpaceOnUse">
<stop stop-color="#79EFD3"/>
<stop offset="1" stop-color="#4FBBE7"/>
</linearGradient>
<linearGradient id="paint3_linear_871_585" x1="30.1565" y1="39.8871" x2="30.1565" y2="6.48813" gradientUnits="userSpaceOnUse">
<stop stop-color="#79EFD3"/>
<stop offset="1" stop-color="#4FBBE7"/>
</linearGradient>
<linearGradient id="paint4_linear_871_585" x1="30.1579" y1="39.5776" x2="30.1578" y2="12.428" gradientUnits="userSpaceOnUse">
<stop stop-color="#79EFD3"/>
<stop offset="1" stop-color="#4FBBE7"/>
</linearGradient>
</defs>
</svg>
